<?xml version="1.0" encoding="utf-8"?> 
<?xml-stylesheet type="text/css" href="ellip-arc-1.css" charset="utf-8"?> 
<!DOCTYPE svg PUBLIC "-//W3C//DTD SVG 20010904//EN" "http://www.w3.org/TR/2001/REC-SVG-20010904/DTD/svg10.dtd"> 
<svg width="40" height="45" xml:lang="fr" xmlns="http://www.w3.org/2000/svg" xmlns:xlink="http://www.w3.org/1999/xlink"> 
	<title>radiosvg1</title>
	<defs>
		    <linearGradient id="G1" x1="0" y1="0" x2="100%" y2="0">
		        <stop offset="0%" stop-color="rgba(35,0,104, 1)" />
		        <stop offset="40%" stop-color="rgba(0, 151, 157,1.0)" />
		    </linearGradient>
	</defs>
  	<g > 
		<path d="M 2,15 a 8 4 0 0,1 35,0" style="stroke:#888; stroke-linejoin:bevel; stroke-width:3.8px; fill:none;"/> 
		<path d="M 7,20 a 8 4 0 0,1 25,0"  style="stroke:#777; stroke-linejoin:bevel; stroke-width:3.8px; fill:none;"/> 
		<path d="M 12,25 a 8 5 0 0,1 15,0"  style="stroke:#555; stroke-linejoin:bevel; stroke-width:3.8px; fill:none;"/> 
    	<circle cx="19.5" cy="35" r="7"  stroke="none"  fill= "url(#G1)" />
  	</g>
  	<g transform="scale(.16,.16) translate(-225,-400)">
    	<path
       style="fill:#ffffff"
       d="m 341.28431,667.68799 c -0.17318,-0.29224 -1.27564,-0.53482 -2.44991,-0.53908 -4.48146,-0.0162 -14.66569,-4.76892 -20.42599,-9.53222 -3.26256,-2.6979 -9.44699,-9.87576 -9.46415,-10.98444 -0.005,-0.32951 -0.37812,-0.91839 -0.82894,-1.30863 -0.8775,-0.75957 -3.76527,-6.96783 -3.76527,-8.09476 0,-0.37259 -0.24706,-0.93512 -0.54904,-1.25008 -0.7983,-0.83262 -1.47433,-3.94013 -2.23349,-10.26671 -0.54765,-4.56393 -0.55109,-6.64256 -0.0189,-11.42382 0.75449,-6.77845 0.92552,-7.41437 3.89246,-14.47325 0.5207,-1.23882 0.94672,-2.38224 0.94672,-2.54093 0,-1.01809 6.14233,-9.10762 9.25463,-12.18846 l 3.73604,-3.69829 0.14162,-80.25354 c 0.0779,-44.13945 0.28226,-81.75474 0.45414,-83.58952 0.17189,-1.83479 0.50934,-3.46285 0.7499,-3.61792 0.24055,-0.15506 0.43736,-0.64243 0.43736,-1.08303 0,-1.68685 5.95487,-8.70031 7.38712,-8.70031 0.37344,0 0.7554,-0.17933 0.8488,-0.3985 0.40578,-0.95228 6.11458,-3.32089 8.00396,-3.32089 1.12187,0 2.18144,-0.2391 2.35461,-0.53134 0.42092,-0.71035 15.37165,-0.71035 15.79258,0 0.17316,0.29224 1.20005,0.53134 2.28195,0.53134 2.70387,0 8.85168,3.34291 11.55049,6.28064 2.82151,3.07129 4.61739,7.0412 4.97067,10.98794 0.15695,1.75342 0.34615,39.30214 0.42044,83.44159 l 0.13508,80.25354 3.73604,3.69829 c 3.11229,3.08084 9.25463,11.17037 9.25463,12.18846 0,0.15869 0.42602,1.30211 0.94672,2.54093 2.96695,7.05888 3.13797,7.6948 3.89247,14.47325 0.53218,4.78126 0.52874,6.85989 -0.0189,11.42382 -0.75916,6.32658 -1.43519,9.43409 -2.23349,10.26671 -0.30197,0.31496 -0.54904,0.87749 -0.54904,1.25008 0,1.12693 -2.88777,7.33519 -3.76528,8.09476 -0.45081,0.39024 -0.82384,0.97912 -0.82894,1.30863 -0.0172,1.10868 -6.20158,8.28654 -9.46415,10.98444 -5.83222,4.82279 -16.02088,9.51995 -20.6807,9.53421 -1.03419,0.003 -2.02201,0.24485 -2.19518,0.53709 -0.17869,0.30156 -2.71227,0.53134 -5.85854,0.53134 -3.14626,0 -5.67984,-0.22978 -5.85854,-0.53134 z m 14.71458,-4.81635 c 4.32685,-1.16715 5.76198,-1.71247 9.48371,-3.60346 2.10143,-1.06773 3.93541,-2.06878 4.0755,-2.22454 0.1401,-0.15576 1.4099,-1.15528 2.82179,-2.22116 2.88742,-2.1798 6.98521,-6.59242 8.8965,-9.58001 0.6998,-1.09389 1.44431,-1.99053 1.65446,-1.99252 0.21014,-0.002 0.38208,-0.21559 0.38208,-0.47465 0,-0.25906 1.00191,-2.70987 2.22647,-5.44625 2.64512,-5.91071 3.03316,-8.08413 3.07024,-17.19606 0.0412,-10.12574 -0.19515,-11.15265 -4.91486,-21.35374 -0.83673,-1.8085 -1.83806,-3.41494 -2.22519,-3.56988 -0.38711,-0.15494 -0.70385,-0.59544 -0.70385,-0.97889 0,-0.91961 -6.48914,-7.8538 -8.42202,-8.99962 l -1.51203,-0.89634 -0.25471,-84.38385 c -0.28823,-95.48314 0.18317,-86.05675 -4.53367,-90.65849 -2.3646,-2.30691 -4.20606,-3.40707 -7.6415,-4.56533 -2.21532,-0.74691 -20.75433,-0.79284 -21.19301,-0.0525 -0.17317,0.29224 -0.84824,0.53134 -1.50015,0.53134 -1.33234,0 -2.78078,0.71266 -5.38443,2.64921 -3.38867,2.52043 -4.21368,3.4757 -5.4115,6.2659 l -1.20403,2.80469 0,83.6004 0,83.60041 -2.14883,1.48316 c -2.55611,1.76428 -8.03993,7.65006 -8.03993,8.62925 0,0.37893 -0.31673,0.81573 -0.70385,0.97067 -0.38712,0.15494 -1.38846,1.76138 -2.22519,3.56988 -4.71971,10.20109 -4.95607,11.228 -4.91486,21.35374 0.0371,9.11193 0.42512,11.28535 3.07024,17.19606 1.22456,2.73638 2.22647,5.18719 2.22647,5.44625 0,0.25906 0.17194,0.47265 0.38208,0.47465 0.21015,0.002 0.95465,0.89863 1.65446,1.99252 1.91129,2.98759 6.00908,7.40021 8.8965,9.58001 1.41188,1.06588 2.68169,2.0654 2.82179,2.22116 0.14009,0.15576 1.97407,1.15681 4.0755,2.22454 3.61371,1.83612 4.94329,2.35135 9.16988,3.55346 2.47109,0.70283 15.47213,0.73888 18.02594,0.05 z m -16.75234,-9.50938 c -0.56038,-0.24143 -2.05048,-0.74593 -3.31135,-1.12114 -1.26085,-0.37519 -2.63634,-0.95041 -3.05663,-1.27825 -0.42028,-0.32785 -1.64902,-1.06245 -2.73052,-1.63245 -3.9095,-2.06048 -12.04317,-11.34788 -12.04317,-13.75144 0,-0.45877 -0.20683,-0.83412 -0.4596,-0.83412 -0.51468,0 -1.30429,-2.07788 -2.38231,-6.26917 -0.80661,-3.136 -0.98436,-13.40379 -0.27415,-15.83501 0.2475,-0.84726 0.74673,-2.61644 1.10939,-3.93151 0.36267,-1.31507 0.91511,-2.74968 1.22764,-3.18804 0.31254,-0.43836 0.90223,-1.51433 1.31043,-2.39104 0.4082,-0.87671 1.02875,-1.90997 1.37899,-2.29615 0.35024,-0.38616 0.6368,-0.94482 0.6368,-1.24144 0,-0.74373 6.61215,-7.27979 7.74336,-7.65426 0.5044,-0.16697 0.91708,-0.52657 0.91708,-0.79912 0,-0.27254 0.41264,-0.49553 0.91699,-0.49553 0.50434,0 1.19208,-0.28693 1.52831,-0.63761 0.46731,-0.4874 0.61532,-13.4746 0.62828,-55.1266 0.0159,-51.19732 0.071,-54.5565 0.9126,-55.6065 1.41403,-1.76425 2.86465,-2.3362 5.92529,-2.3362 2.23909,0 3.3059,0.31067 5.00051,1.45621 1.1848,0.80091 2.26882,1.57801 2.40891,1.72686 0.6645,0.70605 2.6353,1.59899 3.52909,1.59899 0.54765,0 1.1374,0.2391 1.31057,0.53134 0.38651,0.65228 4.01648,0.70173 5.22865,0.0712 1.68895,-0.8785 4.34764,-1.63018 4.78005,-1.35146 0.23912,0.15414 0.43477,24.60688 0.43477,54.33939 0,41.33754 0.14386,54.20917 0.61133,54.69674 0.33623,0.35068 1.02397,0.63761 1.52831,0.63761 0.50435,0 0.91699,0.18755 0.91699,0.41678 0,0.22923 0.65657,0.8213 1.45905,1.31572 1.83014,1.12756 7.2014,6.51848 7.2014,7.22775 0,0.29038 0.28655,0.84394 0.6368,1.2301 0.35023,0.38618 0.97077,1.41944 1.37897,2.29615 0.40821,0.87671 0.9979,1.95268 1.31044,2.39104 0.31254,0.43836 0.86498,1.87297 1.22765,3.18804 0.36265,1.31507 0.86188,3.08425 1.10938,3.93151 1.49561,5.11984 -0.30236,20.35318 -2.5752,21.81826 -0.29747,0.19175 -0.54085,0.70988 -0.54085,1.1514 0,2.37514 -8.16347,11.6753 -12.04318,13.72008 -1.0815,0.57 -2.31023,1.3046 -2.73053,1.63245 -0.42028,0.32784 -1.79576,0.90256 -3.05662,1.27716 -1.26085,0.3746 -2.81906,0.8953 -3.46267,1.15709 -1.45537,0.592 -14.25242,0.56347 -15.64125,-0.0349 z m 23.53753,-28.77903 c 3.18486,-1.33547 3.8085,-1.82251 5.25967,-4.10757 2.53512,-3.99189 1.93789,-7.29433 -2.00691,-11.09741 -2.15913,-2.08156 -2.55083,-2.2533 -5.13918,-2.2533 -2.58257,0 -2.98776,0.1764 -5.17597,2.2533 -2.87296,2.7268 -3.48447,3.91202 -3.48447,6.75345 0,3.40946 2.78375,7.2812 5.97958,8.31662 2.54413,0.82427 2.89834,0.83473 4.56728,0.13491 z m -4.94305,-85.21402 c 0,-0.43836 -0.34387,-0.79701 -0.76416,-0.79701 -0.42028,0 -0.76415,0.35865 -0.76415,0.79701 0,0.43836 0.34387,0.79701 0.76415,0.79701 0.42029,0 0.76416,-0.35865 0.76416,-0.79701 z m -9.98506,-69.55272 c -0.15635,-0.42496 -0.20883,-1.32801 -0.11662,-2.0068 0.16684,-1.22824 0.20404,-1.23416 7.75368,-1.23416 6.67096,0 7.65389,0.11217 8.14841,0.92985 0.40979,0.67759 0.41,1.1821 0.002,1.85969 -0.48604,0.80481 -1.56613,0.94963 -8.03177,1.07695 -6.15771,0.12126 -7.52016,0.0114 -7.75448,-0.62553 z m -12.91274,-9.0519 c -0.34126,-0.42887 -0.5411,-1.20968 -0.44407,-1.73513 0.16487,-0.89295 1.12478,-0.95538 14.68841,-0.95538 l 14.512,0 0,1.59403 0,1.59402 -14.06794,0.14111 c -11.86155,0.11898 -14.16525,0.0188 -14.6884,-0.63865 z m 13.60056,-8.31214 c -1.02338,-0.6217 -1.18105,-2.63097 -0.28019,-3.57056 0.77262,-0.80585 13.28503,-0.88036 14.7053,-0.0876 1.48112,0.82676 1.28645,3.07627 -0.32137,3.71384 -1.7221,0.68289 -12.96099,0.6385 -14.10374,-0.0557 z m -13.65632,-9.82351 c -0.49142,-0.61759 -0.5299,-1.09176 -0.1408,-1.73513 0.47879,-0.79168 2.03819,-0.88531 14.74416,-0.88531 l 14.20874,0 0,1.59402 0,1.59402 -14.06794,0.14112 c -12.37923,0.12417 -14.14911,0.0391 -14.74416,-0.70872 z m 13.65632,-8.24208 c -1.10759,-0.67285 -1.15061,-2.26801 -0.091,-3.3732 1.15671,-1.20645 12.71989,-1.21274 14.36923,-0.008 1.39441,1.01867 1.46558,2.66878 0.14685,3.40488 -1.26862,0.70814 -13.25278,0.68831 -14.42511,-0.0239 z m -13.95211,-9.78572 c -0.16432,-0.44663 -0.0128,-1.1714 0.33662,-1.61059 0.5424,-0.68166 2.69427,-0.77787 14.70333,-0.65741 l 14.06794,0.14111 0,1.32836 0,1.32835 -14.40456,0.14113 c -12.53593,0.12283 -14.44332,0.0358 -14.70333,-0.67095 z"
       id="path3049"
        />
  	</g>
  	<g > 
    	<circle cx="19.5" cy="35" r="7"  stroke="none"  fill= "url(#G1)" />
    	<circle cx="23" cy="35.5" r="2"  stroke="none"  fill="#fff" />
  	</g>
</svg>
