<?xml version="1.0" encoding="iso-8859-1"?>
<svg version="1.1" id="Layer_1" xmlns="http://www.w3.org/2000/svg" xmlns:xlink="http://www.w3.org/1999/xlink" x="20px" y="30px"
	 viewBox="0 0 503.3 503.3" style="enable-background:new 0 0 503.3 503.3;" xml:space="preserve">
	<g>
		<path d="M416.35,157.7C412.75,74,346.65,6.4,263.45,0.5c-0.2,0-0.5,0-0.7-0.1c-1-0.1-1.9-0.2-2.9-0.2s-1.9-0.1-2.9-0.1
			c-1.8-0.1-3.5-0.1-5.3-0.1s-3.5,0-5.3,0.1c-1,0-1.9,0.1-2.9,0.1s-1.9,0.1-2.9,0.2c-0.2,0-0.4,0-0.6,0
			c-83.3,6-149.4,73.6-153,157.3c-10.2,3.5-17.5,13.2-17.5,24.6c0,11.6,7.6,21.5,18.2,24.8l32.6,276.7c1.3,11.1,10.7,19.5,21.9,19.5
			h219.1c11.2,0,20.6-8.4,21.9-19.5l32.6-276.7c10.5-3.3,18.1-13.1,18.1-24.8C433.85,170.9,426.55,161.2,416.35,157.7z M241.75,17.8
			c0.2,0,0.4,0,0.6,0c1.3-0.1,2.5-0.1,3.8-0.2c0.4,0,0.7,0,1.1,0c1.5,0,3-0.1,4.5-0.1s3,0,4.4,0.1c0.4,0,0.7,0,1.1,0
			c1.3,0,2.5,0.1,3.8,0.2c0.2,0,0.4,0,0.6,0c22.4,1.5,43.9,8.1,63.3,19.3l-7.5,44.9c-2.1,12.9-13.3,22.3-26.3,22.3h-78.9
			c-13,0-24.2-9.4-26.3-22.3l-7.5-44.9C197.85,26,219.35,19.3,241.75,17.8z M162.55,47.4l6.2,37.4c3.5,21.2,21.9,36.8,43.4,36.8
			h78.9c21.5,0,39.9-15.6,43.4-36.8l6.2-37.4c33.3,25.3,55.6,64.5,58.1,108.9h-294.4C106.95,111.9,129.15,72.7,162.55,47.4z
			 M397.55,212.9l-30.4,258.8c-1,8.2-7.9,14.4-16.2,14.4h-198.6c-8.3,0-15.2-6.2-16.2-14.4l-30.5-258.8c-0.3-2.4,1.6-4.5,4-4.5
			h283.9C395.95,208.4,397.85,210.5,397.55,212.9z M407.85,191.1H95.45c-4.8,0-8.7-3.9-8.7-8.7c0-4.8,3.9-8.7,8.7-8.7h312.4
			c4.8,0,8.7,3.9,8.7,8.7C416.55,187.2,412.65,191.1,407.85,191.1z" style="stroke:#fff; stroke-width:30px; fill:none;"/>
	</g>
</svg>
